<svg viewBox="0 0 24 24" fill="none" xmlns="http://www.w3.org/2000/svg">
  <path d="M19.12 7.27C18.78 6.02 17.8 5.04 16.55 4.7C15.4 4.38 12 4.38 12 4.38C12 4.38 8.6 4.38 7.45 4.7C6.2 5.04 5.22 6.02 4.88 7.27C4.56 8.42 4.56 10.82 4.56 10.82C4.56 10.82 4.56 13.22 4.88 14.37C5.22 15.62 6.2 16.6 7.45 16.94C8.6 17.26 12 17.26 12 17.26C12 17.26 15.4 17.26 16.55 16.94C17.8 16.6 18.78 15.62 19.12 14.37C19.44 13.22 19.44 10.82 19.44 10.82C19.44 10.82 19.44 8.42 19.12 7.27Z" stroke="currentColor" stroke-linecap="round" stroke-linejoin="round"/>
  <path d="M10.25 8.84L14.75 10.82L10.25 12.8V8.84Z" stroke="currentColor" stroke-linejoin="round"/>
</svg>
